<svg width="24" height="24" version="1.1" viewBox="0 0 6.35 6.35" xmlns="http://www.w3.org/2000/svg"><path d="m1.1014e-4 0.023227v0.79375h6.35v-0.79375z" fill="#00f" fill-rule="evenodd" stroke-width=".26458"/><path transform="scale(.26458)" d="m0.043958 1.5825v-1.4506h23.913v2.9012h-23.913z" fill="#a0a0a0"/><path transform="scale(.26458)" d="m0.043958 1.5825v-1.4506h23.913v2.9012h-23.913z" fill="#a0a0a0"/><g fill="#fff"><g><path transform="scale(.26458)" d="m0.043958 1.5825v-1.4506h23.913v2.9012h-23.913z"/><g stroke-width=".087917"><path transform="scale(.26458)" d="m0.087917 1.5825v-1.4506h23.825v2.9012h-23.825z"/><path transform="scale(.26458)" d="m0.087917 1.5825v-1.4506h23.825v2.9012h-23.825z"/><path transform="scale(.26458)" d="m0.087917 1.5825v-1.4506h23.825v2.9012h-23.825z"/><path transform="scale(.26458)" d="m0.087917 1.5825v-1.4506h23.825v2.9012h-23.825z"/></g></g><path transform="scale(.26458)" d="m0.087917 1.5825v-1.4506h23.825v2.9012h-23.825z" fill-opacity="1.3e-7" stroke-width=".087917"/><g><path transform="scale(.26458)" d="m0.087917 1.5825v-1.4506h23.825v2.9012h-23.825z" stroke-width=".087917"/><path d="m0.011631 3.2333v-0.38381h6.3038v0.76762h-6.3038z" stroke-width=".023261"/><path d="m0.011631 5.9316v-0.38381h6.3038v0.76762h-6.3038z" stroke-width=".023261"/></g></g></svg>
